<svg xmlns="http://www.w3.org/2000/svg" viewBox="0 0 29 29" width="256" height="256" role="img" aria-label="QR code" shape-rendering="crispEdges"><title>QR code</title><rect width="29" height="29" fill="#ffffff"/><path fill="#000000" fill-rule="evenodd" d="M4 4h7v7h-7zM12 4h1v1h-1zM14 4h1v1h-1zM18 4h7v7h-7zM5 5v5h5v-5zM16 5h1v3h-2v-1h-2v-1h3zM19 5v5h5v-5zM6 6h3v3h-3zM20 6h3v3h-3zM12 8h2v1h-1v2h-1zM14 9h3v4h1v1h-2v-2h-1v-1h1v-1h-1v1h-1zM5 12h7v1h1v-1h2v2h-2v1h-4v1h-1v-2h1v-1h-4zM19 12h2v1h3v-1h1v3h-1v-1h-2v1h-1v-1h-1v-1h-1zM4 13h1v1h-1zM10 13v1h1v-1zM19 14h1v2h-1zM4 15h1v2h-1zM6 15h1v1h1v1h-2zM14 15h1v1h-1zM16 15h1v2h2v2h1v1h-3v-1h1v-1h-2v-1h-1v-1h1zM10 16h1v1h-1zM13 16h1v6h2v1h-1v1h1v1h-3v-1h1v-1h-1v1h-1v-7h1zM22 16h1v1h-1zM21 17h1v1h1v1h1v2h-1v1h-1v1h-2v-1h1v-2h1v-1h-2v-1h1zM23 17h2v2h-1v-1h-1zM4 18h7v7h-7zM5 19v5h5v-5zM6 20h3v3h-3zM16 21h1v1h-1zM19 21h1v1h-1zM17 22h1v1h-1zM22 23h1v1h-1zM24 23h1v1h-1zM17 24h1v1h-1zM20 24h1v1h-1z"/></svg>
